HIERARCHY
ROOT Hips
{
    OFFSET 0.000000 0.000000 0.000000
    CHANNELS 6 Xposition Yposition Zposition Zrotation Xrotation Yrotation
    JOINT Spine
    {
        OFFSET -0.000000 7.236184 0.000000
        CHANNELS 3 Zrotation Xrotation Yrotation
        JOINT Spine1
        {
            OFFSET -0.000000 20.420147 0.000000
            CHANNELS 3 Zrotation Xrotation Yrotation
            JOINT Neck
            {
                OFFSET -0.000000 20.336288 1.848754
                CHANNELS 3 Zrotation Xrotation Yrotation
                JOINT Head
                {
                    OFFSET -0.000000 12.354461 -1.764923
                    CHANNELS 3 Zrotation Xrotation Yrotation
                    End Site
                    {
                        OFFSET -0.000000 22.061537 0.000000
                    }
                }
            }
            JOINT LeftShoulder
            {
                OFFSET 3.573296 18.396038 -0.314103
                CHANNELS 3 Zrotation Xrotation Yrotation
                JOINT LeftArm
                {
                    OFFSET 10.880760 0.000000 0.000000
                    CHANNELS 3 Zrotation Xrotation Yrotation
                    JOINT LeftForeArm
                    {
                        OFFSET 27.185530 0.000000 0.000000
                        CHANNELS 3 Zrotation Xrotation Yrotation
                        JOINT LeftHand
                        {
                            OFFSET 27.825975 0.000000 0.000000
                            CHANNELS 3 Zrotation Xrotation Yrotation
                            End Site
                            {
                                OFFSET 13.236923 0.000000 0.000000
                            }
                        }
                    }
                }
            }
            JOINT RightShoulder
            {
                OFFSET -3.474926 18.396038 -0.314103
                CHANNELS 3 Zrotation Xrotation Yrotation
                JOINT RightArm
                {
                    OFFSET -10.880760 0.000000 0.000000
                    CHANNELS 3 Zrotation Xrotation Yrotation
                    JOINT RightForeArm
                    {
                        OFFSET -27.185530 0.000000 0.000000
                        CHANNELS 3 Zrotation Xrotation Yrotation
                        JOINT RightHand
                        {
                            OFFSET -27.825975 0.000000 0.000000
                            CHANNELS 3 Zrotation Xrotation Yrotation
                            End Site
                            {
                                OFFSET -13.236923 0.000000 0.000000
                            }
                        }
                    }
                }
            }
        }
    }
    JOINT LeftUpLeg
    {
        OFFSET 8.824615 0.000000 0.000000
        CHANNELS 3 Zrotation Xrotation Yrotation
        JOINT LeftLeg
        {
            OFFSET -0.000000 -35.111282 0.000000
            CHANNELS 3 Zrotation Xrotation Yrotation
            JOINT LeftFoot
            {
                OFFSET -0.000000 -42.324711 0.000000
                CHANNELS 3 Zrotation Xrotation Yrotation
                JOINT LeftToeBase
                {
                    OFFSET -0.000000 -5.735999 13.236923
                    CHANNELS 3 Zrotation Xrotation Yrotation
                    End Site
                    {
                        OFFSET -0.000000 0.000000 3.529846
                    }
                }
            }
        }
    }
    JOINT RightUpLeg
    {
        OFFSET -8.824615 0.000000 0.000000
        CHANNELS 3 Zrotation Xrotation Yrotation
        JOINT RightLeg
        {
            OFFSET -0.000000 -35.111282 0.000000
            CHANNELS 3 Zrotation Xrotation Yrotation
            JOINT RightFoot
            {
                OFFSET -0.000000 -42.324711 0.000000
                CHANNELS 3 Zrotation Xrotation Yrotation
                JOINT RightToeBase
                {
                    OFFSET -0.000000 -5.735999 13.236923
                    CHANNELS 3 Zrotation Xrotation Yrotation
                    End Site
                    {
                        OFFSET -0.000000 0.000000 3.529846
                    }
                }
            }
        }
    }
}
MOTION
Frames:    12
Frame Time:    0.008333
-4.798359    85.101059    103.261017    -1.095080    -4.303349    177.791306    -2.240244    -11.266221    -1.537383    1.217125    6.300665    -1.383445    2.195153    14.358045    1.241293    -2.505013    -7.541532    0.734144    4.136541    7.047305    -6.671749    -48.713261    -7.235014    -35.451183    22.496233    -32.632931    -80.028145    5.510376    -14.896001    3.650800    7.617499    18.342653    -10.391131    44.148659    7.717401    14.096522    -22.964531    -14.863509    62.528095    -36.543877    -3.977237    9.522762    5.634261    -3.373957    -4.807386    0.025750    7.867151    9.682008    -8.864685    -5.942612    -10.893944    -0.281188    -0.709790    0.312088    -7.771441    -0.391272    -4.669782    2.019846    3.229202    0.638427    3.318151    -3.735737    -12.139256    -2.221082    0.329862    2.401141    
-4.733472    85.096436    103.261246    -1.076300    -4.304058    177.416595    -2.356486    -11.276317    -1.838301    1.331770    6.320280    -1.679225    2.324656    14.251908    1.606528    -3.116330    -7.375845    0.987464    4.077982    6.884681    -7.083263    -49.161942    -7.882580    -36.300995    21.515741    -33.643150    -81.871002    7.019889    -16.232182    4.093340    7.907622    18.705120    -10.578082    45.077072    8.330889    14.225961    -22.631680    -13.973170    60.385693    -36.803944    -4.028899    9.955205    5.707242    -3.255394    -4.627426    0.027172    7.802853    9.841078    -8.902538    -5.952917    -10.865183    -0.283062    -0.710527    0.314168    -7.731790    -0.492950    -4.372653    2.060788    3.262583    0.746105    3.265382    -3.733230    -12.182109    -2.227104    0.332822    2.407641    
-4.670027    85.091713    103.260422    -1.057175    -4.304605    177.041443    -2.471000    -11.284186    -2.140944    1.442737    6.338436    -1.976719    2.452058    14.137429    1.973317    -3.701398    -7.200518    1.249371    4.021873    6.736500    -7.495039    -49.578548    -8.458232    -37.134579    20.632860    -34.591846    -83.615547    8.360113    -17.477905    4.514586    8.164508    19.045769    -10.733788    45.934341    9.033898    14.341873    -22.284840    -13.194702    58.237217    -37.014496    -4.151939    10.321372    5.778508    -3.134567    -4.453113    0.028228    7.737632    10.007577    -8.940055    -5.962894    -10.837528    -0.284688    -0.711711    0.315973    -7.681043    -0.606374    -4.122738    2.077677    3.314278    0.841773    3.227154    -3.730909    -12.164494    -2.232786    0.334682    2.413777    
-4.607279    85.086754    103.258324    -1.038834    -4.303487    176.659271    -2.586407    -11.289614    -2.448888    1.551249    6.357699    -2.279388    2.580162    14.012292    2.346484    -4.269742    -7.015482    1.522899    3.966619    6.598622    -7.915162    -49.969738    -8.979310    -37.962765    19.836832    -35.497471    -85.287170    9.569066    -18.648981    4.913318    8.394114    19.368469    -10.862280    46.729401    9.840063    14.443390    -21.915567    -12.511602    56.062321    -37.177925    -4.340008    10.629371    5.846922    -3.008138    -4.284494    0.029398    7.670864    10.187796    -8.978035    -5.972712    -10.811164    -0.286315    -0.713691    0.317780    -7.621308    -0.730412    -3.914886    2.073130    3.383668    0.932938    3.201742    -3.729186    -12.092543    -2.238218    0.335236    2.419648    
-4.545652    85.081520    103.255592    -1.019098    -4.304191    176.273727    -2.698498    -11.296268    -2.757471    1.655929    6.379237    -2.582857    2.708178    13.877990    2.721000    -4.814992    -6.825727    1.803916    3.912545    6.471789    -8.340478    -50.334721    -9.450392    -38.775688    19.134161    -36.350395    -86.868820    10.648139    -19.729370    5.279495    8.594800    19.667919    -10.962784    47.449383    10.739965    14.527441    -21.523844    -11.923305    53.900692    -37.288216    -4.579700    10.879100    5.914822    -2.882280    -4.123221    0.030000    7.605386    10.379909    -9.016246    -5.982715    -10.785920    -0.288094    -0.716614    0.319757    -7.551785    -0.866039    -3.747210    2.050187    3.468056    1.024264    3.187258    -3.727901    -11.976719    -2.243661    0.334917    2.425534    
-4.485806    85.076035    103.251717    -1.001365    -4.302826    175.884964    -2.809695    -11.301881    -3.065206    1.755690    6.405278    -2.885411    2.836893    13.734778    3.095414    -5.337546    -6.634280    2.090677    3.859732    6.354687    -8.771328    -50.679359    -9.883304    -39.572163    18.513441    -37.147396    -88.366898    11.610588    -20.719095    5.608895    8.767823    19.942387    -11.036398    48.092567    11.724518    14.593043    -21.105188    -11.416670    51.771103    -37.340805    -4.856192    11.077585    5.977285    -2.753086    -3.972590    0.030941    7.541197    10.586302    -9.054519    -5.993044    -10.761953    -0.290209    -0.720407    0.322106    -7.480409    -1.005636    -3.611320    2.016512    3.562809    1.124123    3.180045    -3.727439    -11.833824    -2.249216    0.334016    2.431540    
-4.427252    85.070290    103.246841    -0.984686    -4.300056    175.490814    -2.919457    -11.307445    -3.372665    1.851276    6.436952    -3.187748    2.966383    13.582416    3.470884    -5.839884    -6.442869    2.383608    3.807638    6.246718    -9.209680    -51.013706    -10.293284    -40.358742    17.954620    -37.888008    -89.800720    12.472905    -21.626516    5.900584    8.914330    20.192215    -11.084666    48.663528    12.789447    14.640433    -20.651459    -10.974181    49.678223    -37.332043    -5.156069    11.232875    6.035642    -2.621317    -3.831115    0.032162    7.479129    10.807364    -9.093128    -6.003994    -10.739038    -0.292710    -0.725106    0.324886    -7.409271    -1.147292    -3.494776    1.979172    3.663890    1.240904    3.175972    -3.728000    -11.682815    -2.255041    0.332102    2.437844    
-4.370077    85.064354    103.240944    -0.968691    -4.294959    175.093018    -3.026369    -11.312508    -3.677436    1.941880    6.475085    -3.487521    3.095501    13.422381    3.844853    -6.319552    -6.255068    2.680375    3.756360    6.147976    -9.652351    -51.343842    -10.688781    -41.133930    17.441877    -38.563736    -91.175598    13.241533    -22.452620    6.151693    9.034265    20.415705    -11.108566    49.162613    13.918093    14.669680    -20.158344    -10.583584    47.646557    -37.259602    -5.464474    11.350983    6.090322    -2.487085    -3.699207    0.033187    7.420344    11.041265    -9.131885    -6.015903    -10.716900    -0.295666    -0.730837    0.328170    -7.340472    -1.286979    -3.389030    1.943096    3.767503    1.377509    3.172416    -3.729674    -11.536860    -2.261141    0.329806    2.444446    
-4.313927    85.058296    103.233971    -0.953201    -4.286219    174.689911    -3.130008    -11.316070    -3.979508    2.027181    6.520298    -3.784832    3.223407    13.254534    4.217917    -6.777277    -6.071774    2.981168    3.706221    6.058546    -10.099225    -51.678501    -11.078825    -41.904278    16.957548    -39.174042    -92.506859    13.929034    -23.207001    6.363092    9.128470    20.614172    -11.110033    49.596260    15.102745    14.682626    -19.618073    -10.231076    45.681782    -37.121571    -5.771107    11.437304    6.141610    -2.348922    -3.575327    0.034009    7.365211    11.287735    -9.170721    -6.029012    -10.695333    -0.298956    -0.737724    0.331825    -7.273615    -1.423379    -3.289644    1.908381    3.872788    1.530950    3.169377    -3.732020    -11.395679    -2.267859    0.327180    2.451717    
-4.259146    85.052231    103.226021    -0.938452    -4.272820    174.284439    -3.228890    -11.316463    -4.275366    2.105504    6.571318    -4.076298    3.348309    13.081165    4.586176    -7.208736    -5.895764    3.282607    3.657942    5.979640    -10.545089    -52.019882    -11.463745    -42.667351    16.493973    -39.714668    -93.791344    14.540400    -23.891624    6.534746    9.197974    20.786980    -11.091513    49.966862    16.322670    14.680098    -19.030256    -9.909961    43.808975    -36.918468    -6.065275    11.495213    6.188939    -2.207176    -3.458968    0.034656    7.314673    11.543340    -9.209435    -6.043285    -10.674412    -0.302564    -0.745283    0.335835    -7.207402    -1.555280    -3.197701    1.871463    3.979446    1.691368    3.169320    -3.734407    -11.250914    -2.274976    0.324190    2.459420    
-4.205279    85.046127    103.217125    -0.924425    -4.254329    173.873230    -3.323323    -11.312329    -4.565746    2.176900    6.626660    -4.362592    3.471257    12.902647    4.951052    -7.617557    -5.726795    3.585253    3.611720    5.911982    -10.992411    -52.373783    -11.845633    -43.432331    16.042976    -40.194309    -95.041405    15.088955    -24.519663    6.669971    9.245814    20.937378    -11.056002    50.282520    17.577288    14.663206    -18.388124    -9.612483    42.022175    -36.648079    -6.343793    11.527209    6.232579    -2.060749    -3.347496    0.035123    7.268719    11.808050    -9.248140    -6.058876    -10.653472    -0.306389    -0.754120    0.340086    -7.139532    -1.684411    -3.111810    1.828420    4.088951    1.850912    3.174589    -3.736197    -11.092663    -2.282668    0.320522    2.467748    
-4.152466    85.039925    103.207542    -0.910858    -4.231252    173.457520    -3.412876    -11.302182    -4.848139    2.242135    6.682883    -4.641293    3.591040    12.721429    5.309600    -8.002048    -5.565954    3.886250    3.567786    5.857347    -11.439795    -52.740173    -12.219048    -44.198807    15.606554    -40.619392    -96.252258    15.581244    -25.096655    6.771746    9.274075    21.066975    -11.007793    50.547012    18.854113    14.632782    -17.692797    -9.336389    40.334274    -36.310543    -6.602331    11.534103    6.272882    -1.911031    -3.239141    0.035273    7.228130    12.078758    -9.286787    -6.075796    -10.632264    -0.310121    -0.763995    0.344234    -7.068954    -1.811351    -3.030158    1.777810    4.201151    2.003394    3.186200    -3.736946    -10.917678    -2.290820    0.316327    2.476575    
